<?xml version="1.0" standalone="no"?>
<!DOCTYPE svg PUBLIC "-//W3C//DTD SVG 20010904//EN"
 "http://www.w3.org/TR/2001/REC-SVG-20010904/DTD/svg10.dtd">
<svg version="1.0" xmlns="http://www.w3.org/2000/svg"
 width="32.000000pt" height="32.000000pt" viewBox="0 0 32.000000 32.000000"
 preserveAspectRatio="xMidYMid meet">

<g transform="translate(0.000000,32.000000) scale(0.100000,-0.100000)"
fill="#000000" stroke="none">
<path d="M82 290 c-53 -32 -74 -75 -69 -142 2 -44 9 -64 28 -84 77 -82 197
-69 247 26 27 55 28 82 1 137 -37 76 -136 106 -207 63z m128 -17 c0 -10 -8
-11 -27 -7 -16 4 -30 8 -32 10 -2 2 -12 -1 -23 -7 -22 -12 -47 -1 -27 12 22
14 109 8 109 -8z m-10 -28 c36 -19 50 -43 50 -88 0 -73 -77 -118 -138 -81 -54
31 -67 92 -31 138 36 45 73 55 119 31z m-96 -190 c11 -8 31 -16 45 -16 23 -2
23 -2 4 -6 -20 -4 -83 21 -83 32 0 9 15 4 34 -10z m146 10 c0 -8 -61 -37 -67
-32 -3 3 8 12 24 21 29 16 43 19 43 11z"/>
<path d="M145 130 c-3 -5 1 -10 10 -10 9 0 13 5 10 10 -3 6 -8 10 -10 10 -2 0
-7 -4 -10 -10z"/>
</g>
</svg>
